# xmcd
#
# Track frame offsets:
#	150
#	15959
#	32828
#	48759
#	62660
#	75661
#	92143
#	110111
#	121375
#	134294
#	163261
#	179702
#	198688
#	212994
#	227895
#	246454
#	264669
#	283896
#	304552
#	321976
#
# Disc length: 4461 seconds
#
# Revision: 1
# Processed by: cddbd v1.5PL3 Copyright (c) Steve Scherf et al.
# Submitted via: audiograbber 1.83.01
#
DISCID=30116b14
DTITLE=Bruno e Marrone - As 20 mais de 
DYEAR=2003
DGENRE=Sertaneja
TTITLE0=Por um minuto
TTITLE1=Meu jeito de sentir
TTITLE2=Fruto especial
TTITLE3=Favo de mel
TTITLE4=Dormi na praça
TTITLE5=Parabens pro nosso amor
TTITLE6=Preciso amar de novo
TTITLE7=Vida vazia
TTITLE8=Quem manda é o coração
TTITLE9=Acorrentador em você
TTITLE10=Passou da conta
TTITLE11=É nisso que dá
TTITLE12=Como ficar sem você
TTITLE13=Alçapão
TTITLE14=Como eu te amo
TTITLE15=Apenas um sorriso
TTITLE16=Agarrado em mim
TTITLE17=Te amo e não te quero
TTITLE18=Sozinho na noite
TTITLE19=Tchau amor
EXTD=
EXTT0=
EXTT1=
EXTT2=
EXTT3=
EXTT4=
EXTT5=
EXTT6=
EXTT7=
EXTT8=
EXTT9=
EXTT10=
EXTT11=
EXTT12=
EXTT13=
EXTT14=
EXTT15=
EXTT16=
EXTT17=
EXTT18=
EXTT19=
PLAYORDER=
